<svg id="Capa_1" data-name="Capa 1" xmlns="http://www.w3.org/2000/svg" viewBox="0 0 162.62 466.39"><defs><style>.cls-1,.cls-4{fill:#fff;}.cls-2{fill:#2ea9e1;}.cls-3{fill:#ec7844;}.cls-3,.cls-4{fill-rule:evenodd;}</style></defs><path class="cls-1" d="M2.94,32.19H28.85V97.62H44.18V32.19h25.9V187.94H44.18V122.51H28.85v65.43H2.94Z"/><path class="cls-1" d="M88.27,67.77H108.2V187.58H88.27Z"/><path class="cls-2" d="M.61,197.66H25.27q22.56.06,22.56,24.71V240q0,15.5-13.35,20.4l19,54.64H35L19.7,263.42l-2.15.3v51.35H.61Zm16.94,16.69V248h3.89a16.23,16.23,0,0,0,4.84-.48q4.61-1.86,4.61-7.48V222.37q0-8-7.36-8Z"/><path class="cls-2" d="M110.54,292.27q0,24.66-24.35,24.71t-24.3-24.71V220.46q0-24.66,24.3-24.66t24.35,24.66ZM93.61,220.46q0-7.91-7.36-8h-.12q-7.3,0-7.3,8v71.81q0,8,7.36,8t7.42-8Z"/><path class="cls-1" d="M37.47,406.77l19.69-80.43H74.1V443.76H57.88V377.87L43.4,443.76H31.91L17,377.87v65.89H.61V326.34H17.55Z"/><path class="cls-1" d="M90,326.34h16.93V443.76H90Z"/><path class="cls-1" d="M2.06,466a6.17,6.17,0,0,1-2.06-1l.91-2a6.37,6.37,0,0,0,1.77.88,6.66,6.66,0,0,0,2.05.33,3.34,3.34,0,0,0,1.69-.34A1,1,0,0,0,7,463a.85.85,0,0,0-.33-.69,2.45,2.45,0,0,0-.82-.44c-.34-.11-.8-.23-1.37-.36a19.52,19.52,0,0,1-2.17-.63,3.53,3.53,0,0,1-1.44-1A2.68,2.68,0,0,1,.23,458a3.16,3.16,0,0,1,.55-1.83,3.63,3.63,0,0,1,1.64-1.3,6.74,6.74,0,0,1,2.69-.48,9.27,9.27,0,0,1,2.17.26,6.2,6.2,0,0,1,1.85.77l-.82,2a6.42,6.42,0,0,0-3.21-.91,3.07,3.07,0,0,0-1.67.36,1.12,1.12,0,0,0-.53,1,.93.93,0,0,0,.62.89,10,10,0,0,0,1.89.57,18.89,18.89,0,0,1,2.17.63A3.69,3.69,0,0,1,9,461a2.68,2.68,0,0,1,.6,1.84,3.24,3.24,0,0,1-.55,1.81,3.72,3.72,0,0,1-1.67,1.3,6.77,6.77,0,0,1-2.69.48A9.76,9.76,0,0,1,2.06,466Z"/><path class="cls-1" d="M15.06,465a5.28,5.28,0,0,1-1.38-3.92v-6.48h2.68V461c0,2.08.86,3.11,2.58,3.11a2.42,2.42,0,0,0,1.92-.75,3.52,3.52,0,0,0,.67-2.36v-6.38h2.64v6.48A5.28,5.28,0,0,1,22.79,465a5.22,5.22,0,0,1-3.86,1.38A5.25,5.25,0,0,1,15.06,465Z"/><path class="cls-1" d="M30.29,466a6.08,6.08,0,0,1-2.06-1l.91-2a6.1,6.1,0,0,0,1.77.88,6.61,6.61,0,0,0,2.05.33,3.37,3.37,0,0,0,1.69-.34,1,1,0,0,0,.54-.9.87.87,0,0,0-.32-.69,2.51,2.51,0,0,0-.83-.44c-.33-.11-.79-.23-1.36-.36a18.31,18.31,0,0,1-2.17-.63,3.56,3.56,0,0,1-1.45-1,2.73,2.73,0,0,1-.6-1.85,3.22,3.22,0,0,1,.54-1.83,3.71,3.71,0,0,1,1.65-1.3,6.71,6.71,0,0,1,2.69-.48,9.27,9.27,0,0,1,2.17.26,6.31,6.31,0,0,1,1.85.77l-.83,2a6.42,6.42,0,0,0-3.21-.91,3,3,0,0,0-1.66.36,1.13,1.13,0,0,0-.54,1,.94.94,0,0,0,.62.89,10.38,10.38,0,0,0,1.9.57,18.65,18.65,0,0,1,2.16.63,3.55,3.55,0,0,1,1.45,1,2.69,2.69,0,0,1,.61,1.84,3.17,3.17,0,0,1-.56,1.81,3.69,3.69,0,0,1-1.66,1.3,6.79,6.79,0,0,1-2.7.48A9.75,9.75,0,0,1,30.29,466Z"/><path class="cls-1" d="M52.63,454.61v11.58H50v-4.75H44.69v4.75H42V454.61h2.68v4.56H50v-4.56Z"/><path class="cls-1" d="M57.69,454.61h2.68v11.58H57.69Z"/><path class="cls-1" d="M75,461.2a2.86,2.86,0,0,1,.62,1.9,2.68,2.68,0,0,1-1.1,2.29,5.54,5.54,0,0,1-3.25.8H66V454.61h5a5,5,0,0,1,3,.78,2.56,2.56,0,0,1,1.07,2.2,2.73,2.73,0,0,1-.48,1.63,2.83,2.83,0,0,1-1.29,1A3.06,3.06,0,0,1,75,461.2Zm-7.84-5.58v4.2h3.69a3.72,3.72,0,0,0,2.17-.54,2,2,0,0,0,0-3.13,3.8,3.8,0,0,0-2.17-.53Zm6.44,9A1.83,1.83,0,0,0,74.4,463c0-1.45-1-2.17-3.14-2.17H67.17v4.35h4.09A4.28,4.28,0,0,0,73.61,464.65Z"/><path class="cls-1" d="M88,463.1H81.55l-1.39,3.09H78.89l5.29-11.58h1.21l5.29,11.58H89.39Zm-.44-1-2.78-6.22L82,462.1Z"/><path class="cls-1" d="M102.83,466.19l-2.65-3.72a9.12,9.12,0,0,1-.92,0H96.14v3.67H94.92V454.61h4.34a5.21,5.21,0,0,1,3.47,1.06,3.58,3.58,0,0,1,1.26,2.91,3.75,3.75,0,0,1-.69,2.29,3.85,3.85,0,0,1-2,1.35l2.83,4Zm-1-5.48a3,3,0,0,0,0-4.29,4,4,0,0,0-2.63-.75H96.14v5.8h3.08A4,4,0,0,0,101.85,460.71Z"/><path class="cls-3" d="M87.49,42.86a12.45,12.45,0,0,1,17.32-15.47c-.31,0-.62,0-.92.07A18.61,18.61,0,0,0,88.58,39a18.92,18.92,0,0,0-1.09,3.86m24-2.49A12.45,12.45,0,0,1,97,50.72a16.75,16.75,0,0,1,13.71-10.29Zm-.37-5.46a12.6,12.6,0,0,1,.52,3.55c-.38,0-.75,0-1.12.09a18.56,18.56,0,0,0-15.3,11.54l-.07.15a12.67,12.67,0,0,1-2.5-1.18,16.7,16.7,0,0,1,14.77-14.17A16.35,16.35,0,0,1,111.07,34.91Zm-3.13-5.24a12.32,12.32,0,0,1,2.35,3.27,17.94,17.94,0,0,0-3.11.06A18.64,18.64,0,0,0,91.87,44.54a18.4,18.4,0,0,0-1,3.25c-.19-.17-.38-.34-.56-.52a13.39,13.39,0,0,1-1.22-1.41,17,17,0,0,1,1.22-6.16,16.75,16.75,0,0,1,13.74-10.36,17.25,17.25,0,0,1,3.52,0Z"/><path class="cls-1" d="M116.32,33.19l-11.91-11.9a7.48,7.48,0,0,0-10.54,0L82,33.19a7.5,7.5,0,0,0,0,10.55L93.87,55.65a7.48,7.48,0,0,0,10.54,0l11.91-11.91a7.5,7.5,0,0,0,0-10.55M107.1,18.6,119,30.51a11.26,11.26,0,0,1,0,15.91L107.1,58.33a11.3,11.3,0,0,1-15.92,0L79.28,46.42a11.26,11.26,0,0,1,0-15.91L91.18,18.6a11.3,11.3,0,0,1,15.92,0Z"/><polygon class="cls-4" points="112.01 64.28 162.62 19.77 158.18 15.12 110.57 62.84 112.01 64.28"/><polygon class="cls-4" points="124.73 64.72 145.99 1.8 139.82 0 122.7 64.17 124.73 64.72"/></svg>